<?xml version="1.0" encoding="utf-8"?>
<!-- Generator: Adobe Illustrator 23.0.3, SVG Export Plug-In . SVG Version: 6.00 Build 0)  -->
<svg version="1.1" id="Calque_1" xmlns="http://www.w3.org/2000/svg" xmlns:xlink="http://www.w3.org/1999/xlink" x="0px" y="0px"
	 viewBox="0 0 170.1 119.1" style="enable-background:new 0 0 170.1 119.1;" xml:space="preserve">
<g>
	<path d="M120.3,18.8c-5.7,0-9.4,3.2-12,6.5v-5.6H94.2v10.1c-1.1-3.5-3-6.7-5.7-9.4c-4.4-4.4-10.2-6.8-16.4-6.8
		c-6.2,0-12,2.4-16.4,6.8c-2.9,2.9-5,6.5-6,10.4c-2.8-7.6-9.2-12-16.3-12c-6,0-9.4,2.9-12.2,6.2V5.7H7.1v54.2h14.1V55
		c2.2,2.6,5,4.9,9.5,5.6c-4.4,0.7-7.2,3.2-9.5,6v-5.4H7.1v52.1h14.1V96.6c2.6,3,6.2,5.8,12.3,5.8c7.2,0,13.7-4.6,16.4-12.6
		c1.1,3.6,3.1,6.9,5.8,9.7c4.4,4.4,10.2,6.8,16.4,6.8c6.2,0,12-2.4,16.4-6.8c2.8-2.8,4.8-6.2,5.8-9.8c0.7,7.9,5.7,12.7,13.6,12.7
		c5.7,0,9.4-3,12-6.4v5.5H134V61.3h-14.1v21.8c0,4.4-2.5,6.8-5.9,6.8c-3.4,0-5.7-2.4-5.7-6.8V61.3H94.2v14.9c-1.1-3.5-3-6.7-5.7-9.5
		l-5.6-5.6l-9.6,9.6l5.6,5.6c1.8,1.8,2.8,4.2,2.8,6.8c0,2.6-1,5-2.8,6.8c-1.8,1.8-4.2,2.8-6.8,2.8c-2.6,0-4.9-1-6.8-2.8
		c-3.7-3.7-3.7-9.8,0-13.5l23-23l0.1-0.1c2.7-2.7,4.6-5.9,5.7-9.4v16.2h14.1V38.2c0-4.4,2.5-6.8,5.9-6.8c3.3,0,5.6,2.4,5.6,6.8v21.8
		H134V33.6C134,24.5,128.9,18.8,120.3,18.8z M20.9,39.9v-0.1c0-5.3,3.6-9.1,8.2-9.1c4.6,0,8.2,3.8,8.2,9.1v0.1
		c0,5.4-3.6,9.1-8.2,9.1C24.5,49,20.9,45.2,20.9,39.9z M37.3,81.4c0,5.4-3.6,9.1-8.2,9.1c-4.5,0-8.2-3.8-8.2-9.1v-0.1
		c0-5.3,3.6-9.1,8.2-9.1c4.6,0,8.2,3.8,8.2,9.1V81.4z M78.9,43.5L55.7,66.7c-2.3,2.3-4.1,5.1-5.3,8.1c-2-8-7.7-13.1-14.5-14.2
		c7-1.1,12.8-6.5,14.6-15.1c1.1,2.8,2.9,5.4,5.1,7.6l5.2,5.2l9.6-9.6l-5.2-5.2c-3.7-3.7-3.7-9.8,0-13.5c1.8-1.8,4.2-2.8,6.8-2.8
		c2.6,0,4.9,1,6.8,2.8C82.5,33.7,82.6,39.8,78.9,43.5z"/>
	<path d="M150.3,69.4v-8.1h-14.1v40.2h14.1V89c0-9.3,4.2-13.5,11.5-13.5h1.2V60.6C156.3,60.3,152.6,63.9,150.3,69.4z"/>
</g>
</svg>
